<svg xmlns="http://www.w3.org/2000/svg" viewBox="0 0 920 560" font-family="Helvetica, Arial, sans-serif">
  <rect x="0" y="0" width="920" height="560" fill="#ffffff"/>

  <text x="24" y="38" font-size="21" font-weight="bold" fill="#111">J1 power/service lead — USB-A → JST SH-4</text>
  <text x="24" y="60" font-size="13" fill="#555">J1 = JST SM04B-SRSS-TB (1 mm pitch); pin 1 per the silkscreen mark. J1's pin order mirrors USB-A.</text>

  <!-- USB-A plug -->
  <rect x="50" y="195" width="120" height="90" rx="8" fill="#e9e9e9" stroke="#555" stroke-width="2"/>
  <rect x="80" y="215" width="90" height="50" rx="3" fill="#cfcfcf" stroke="#777" stroke-width="1.5"/>
  <text x="110" y="310" font-size="14" fill="#333" text-anchor="middle">USB-A plug</text>
  <text x="110" y="328" font-size="12" fill="#777" text-anchor="middle">(charger / laptop side)</text>

  <!-- cable trunk -->
  <line x1="170" y1="240" x2="320" y2="240" stroke="#888" stroke-width="22" stroke-linecap="round"/>
  <text x="252" y="222" font-size="11" fill="#777" text-anchor="middle">4-signal screw-terminal breakout</text>

  <!-- wires: fan out from trunk end (320,240) -->
  <!-- 1: red VBUS, y=170 -->
  <path d="M320 240 C 350 240, 350 170, 385 170 L 660 170" fill="none" stroke="#d32f2f" stroke-width="6"/>
  <text x="470" y="162" font-size="14" fill="#d32f2f" font-weight="bold">red — VBUS (+5 V)</text>
  <!-- 2: white D-, y=215 (grey underlay so white shows) -->
  <path d="M320 240 C 350 240, 350 215, 385 215 L 660 215" fill="none" stroke="#9e9e9e" stroke-width="8"/>
  <path d="M320 240 C 350 240, 350 215, 385 215 L 660 215" fill="none" stroke="#ffffff" stroke-width="5"/>
  <text x="470" y="207" font-size="14" fill="#616161" font-weight="bold">white — D−</text>
  <!-- 3: green D+, y=260 -->
  <path d="M320 240 C 350 240, 350 260, 385 260 L 660 260" fill="none" stroke="#2e7d32" stroke-width="6"/>
  <text x="470" y="252" font-size="14" fill="#2e7d32" font-weight="bold">green — D+</text>
  <!-- 4: black GND, y=305 -->
  <path d="M320 240 C 350 240, 350 305, 385 305 L 660 305" fill="none" stroke="#111111" stroke-width="6"/>
  <text x="470" y="297" font-size="14" fill="#111" font-weight="bold">black — GND</text>
  <!-- shield -->
  <path d="M320 240 C 355 240, 355 350, 395 350 L 560 350" fill="none" stroke="#9e9e9e" stroke-width="3" stroke-dasharray="7 5"/>
  <text x="395" y="372" font-size="12.5" fill="#757575">shield / drain — trim short + heat-shrink,</text>
  <text x="395" y="388" font-size="12.5" fill="#757575">unconnected at the J1 end</text>

  <!-- JST SH-4 connector -->
  <rect x="660" y="140" width="230" height="200" rx="8" fill="#fafafa" stroke="#333" stroke-width="2"/>
  <text x="775" y="130" font-size="15" font-weight="bold" fill="#111" text-anchor="middle">J1 — JST SH 4-pin</text>
  <!-- pin 1 marker -->
  <path d="M652 158 L 665 165 L 652 172 Z" fill="#d32f2f"/>
  <!-- pins -->
  <rect x="668" y="157" width="26" height="26" fill="#ffd54f" stroke="#333" stroke-width="1.5"/>
  <text x="681" y="175" font-size="14" font-weight="bold" text-anchor="middle" fill="#111">1</text>
  <text x="706" y="175" font-size="14" fill="#111">VBUS (+5 V)</text>

  <rect x="668" y="202" width="26" height="26" fill="#ffd54f" stroke="#333" stroke-width="1.5"/>
  <text x="681" y="220" font-size="14" font-weight="bold" text-anchor="middle" fill="#111">2</text>
  <text x="706" y="220" font-size="14" fill="#111">USB_DN (D−)</text>

  <rect x="668" y="247" width="26" height="26" fill="#ffd54f" stroke="#333" stroke-width="1.5"/>
  <text x="681" y="265" font-size="14" font-weight="bold" text-anchor="middle" fill="#111">3</text>
  <text x="706" y="265" font-size="14" fill="#111">USB_DP (D+)</text>

  <rect x="668" y="292" width="26" height="26" fill="#ffd54f" stroke="#333" stroke-width="1.5"/>
  <text x="681" y="310" font-size="14" font-weight="bold" text-anchor="middle" fill="#111">4</text>
  <text x="706" y="310" font-size="14" fill="#111">GND (+ MP pads)</text>

  <text x="775" y="358" font-size="11.5" fill="#777" text-anchor="middle">mate with a keyed JST-SH 4-pin male plug;</text>
  <text x="775" y="373" font-size="11.5" fill="#777" text-anchor="middle">a pre-crimped pigtail is recommended</text>

  <!-- notes -->
  <g font-size="13.5" fill="#333">
    <text x="50" y="415">• Wire colours per the USB 2.0 spec — verify each lead with a DMM before first power-up; cheap cables sometimes deviate.</text>
    <text x="50" y="440">• Use a USB-A male breakout that exposes VBUS, D−, D+ and GND; power-only adapters cannot provide recovery USB.</text>
    <text x="50" y="458">• Keep D+/D− short and twisted together between the breakout and JST pigtail.</text>
    <text x="50" y="483">• The same lead powers J1 from the wall supply or connects J1 to a laptop for recovery; there is no second inlet.</text>
    <text x="50" y="508">• Swapped D+/D− prevents enumeration. D4 blocks reversed VBUS, but verify all four conductors with a DMM first.</text>
  </g>
</svg>
